
<svg version="1.0" xmlns="http://www.w3.org/2000/svg"
 width="1080.000000pt" height="1080.000000pt" viewBox="0 0 1080.000000 1080.000000"
 preserveAspectRatio="xMidYMid meet">

<g transform="translate(0.000000,1080.000000) scale(0.100000,-0.100000)"
fill="#000000" stroke="none">
<path d="M3705 9024 c-137 -18 -359 -72 -513 -125 -192 -67 -499 -223 -597
-303 l-30 -25 95 -95 c52 -53 98 -96 102 -96 4 0 49 26 100 57 181 111 400
201 623 259 130 33 320 64 395 64 l40 0 0 -302 0 -303 163 -1 c261 -3 499 -61
734 -179 l121 -62 99 99 98 99 -25 19 c-46 35 -257 140 -363 180 -142 53 -272
86 -427 106 l-130 18 0 303 0 303 -187 -1 c-104 -1 -237 -8 -298 -15z"/>
<path d="M4470 8873 l0 -140 118 -28 c344 -81 663 -240 940 -468 l73 -61 -433
-433 -433 -433 61 -58 c33 -31 76 -76 95 -99 l35 -42 528 528 c443 443 527
532 522 549 -11 33 -217 225 -352 325 -231 174 -492 313 -744 397 -115 38
-288 83 -367 96 l-43 7 0 -140z"/>
<path d="M7416 8900 c-269 -24 -658 -135 -737 -210 -107 -102 -48 -280 94
-280 19 0 97 23 172 50 163 60 295 94 428 111 131 16 466 6 567 -16 407 -90
753 -353 920 -700 86 -178 120 -333 120 -543 -1 -195 -31 -312 -128 -497 -26
-49 -274 -439 -551 -865 -445 -684 -505 -780 -509 -821 -6 -60 19 -112 67
-141 l36 -23 675 -3 c754 -3 734 -5 787 65 22 28 27 46 27 87 0 64 -23 107
-71 138 l-38 23 -507 3 c-280 2 -508 5 -508 8 0 3 170 265 377 582 499 765
520 800 582 976 65 183 75 250 75 481 0 196 -2 218 -28 330 -74 314 -199 540
-420 761 -258 257 -564 410 -936 468 -122 19 -367 27 -494 16z"/>
<path d="M2280 8343 c-265 -240 -509 -608 -650 -979 -39 -102 -112 -367 -123
-447 l-6 -38 141 3 141 3 23 102 c76 339 257 699 487 966 l50 59 216 -216 216
-216 60 61 c78 79 192 174 280 233 101 68 298 163 417 201 l103 32 3 142 c1
77 0 141 -4 141 -18 0 -175 -44 -251 -71 -178 -63 -423 -200 -556 -311 l-49
-41 -217 217 -217 217 -64 -58z"/>
<path d="M7380 7984 c-122 -22 -273 -75 -425 -148 -125 -61 -134 -67 -154
-108 -25 -53 -27 -103 -5 -158 21 -51 60 -79 123 -87 46 -5 60 -1 198 65 174
82 251 108 376 123 218 27 354 -6 447 -108 107 -117 104 -259 -9 -468 -21 -40
-443 -690 -936 -1445 -809 -1235 -899 -1377 -903 -1419 -6 -61 16 -111 64
-147 l37 -29 1546 -3 c1735 -3 1607 -8 1658 70 48 72 28 175 -45 224 -26 18
-85 19 -1413 24 l-1385 5 225 345 c124 190 489 748 811 1240 348 533 608 940
641 1006 90 179 130 360 109 493 -25 154 -86 269 -194 367 -66 60 -186 124
-281 150 -86 24 -371 28 -485 8z"/>
<path d="M3945 7819 c-329 -25 -614 -157 -851 -394 -237 -236 -369 -513 -396
-833 -37 -419 101 -803 392 -1092 199 -199 401 -308 695 -376 113 -27 413 -27
535 -1 102 22 246 70 318 106 l52 26 -102 102 -103 102 -90 -30 c-136 -44
-199 -52 -379 -46 -171 5 -255 23 -398 83 -319 134 -572 454 -632 801 -99 566
247 1103 803 1245 205 52 460 38 645 -34 l50 -19 105 105 105 105 -64 29
c-217 98 -452 139 -685 121z"/>
<path d="M2363 7482 c-138 -225 -242 -520 -268 -762 -3 -30 -8 -70 -11 -87
l-5 -33 -304 0 -305 0 0 -140 0 -140 304 0 304 0 6 -27 c2 -16 8 -55 11 -88
24 -229 126 -524 258 -748 l51 -87 102 101 102 102 -30 51 c-80 133 -146 311
-190 506 -20 93 -23 131 -23 330 0 198 3 238 24 335 39 185 118 392 195 514
l28 44 -69 66 c-38 36 -84 81 -104 98 l-35 33 -41 -68z"/>
<path d="M1506 6008 c93 -532 364 -1037 752 -1405 l87 -83 216 216 216 216 64
-50 c141 -110 325 -215 495 -282 69 -28 275 -90 296 -90 5 0 7 64 6 141 l-3
141 -120 42 c-148 52 -215 82 -325 148 -119 71 -219 148 -325 250 l-91 87
-210 -210 c-115 -115 -214 -209 -221 -209 -14 0 -94 94 -176 208 -163 226
-300 532 -362 807 l-22 100 -141 3 -142 3 6 -33z"/>
<path d="M4913 5795 c-6 -10 -48 -55 -94 -102 l-84 -83 434 -434 433 -433 -96
-77 c-258 -207 -608 -379 -918 -451 l-118 -27 0 -139 c0 -79 4 -139 9 -139 31
0 286 64 396 100 158 51 450 192 595 287 58 38 152 107 210 154 125 100 300
269 300 290 0 8 -238 252 -529 543 -450 450 -530 526 -538 511z"/>
<path d="M4824 4950 c-127 -65 -284 -120 -427 -150 -134 -27 -317 -43 -404
-36 l-73 7 0 -307 0 -307 -79 7 c-208 17 -470 82 -672 166 -119 50 -284 136
-359 186 -19 13 -39 24 -45 24 -11 0 -195 -181 -195 -191 0 -9 130 -93 222
-145 229 -127 493 -225 738 -274 186 -37 314 -50 506 -50 l154 0 0 304 0 304
68 7 c112 11 305 53 419 91 109 36 386 166 433 203 l25 20 -100 99 -100 100
-111 -58z"/>
<path d="M5940 3174 c-6 -15 -83 -205 -171 -423 -89 -218 -165 -406 -170 -418
-8 -23 -8 -23 89 -23 l98 0 14 43 15 42 145 3 146 3 15 -43 16 -43 96 -3 c54
-1 97 -1 97 1 0 19 -359 882 -368 885 -6 2 -17 -9 -22 -24z m94 -591 c7 -22 6
-23 -67 -23 -40 0 -76 2 -79 5 -5 5 22 83 68 205 5 13 48 -90 78 -187z"/>
<path d="M7470 2751 l0 -441 85 0 85 0 2 231 3 232 215 -241 c159 -178 221
-241 238 -242 l22 0 0 440 0 440 -85 0 -85 0 -2 -242 -3 -242 -214 249 c-151
177 -221 251 -237 253 l-24 3 0 -440z"/>
<path d="M8805 3171 c-110 -27 -183 -117 -193 -237 -9 -117 46 -186 208 -262
118 -55 130 -65 130 -113 0 -31 -6 -42 -31 -60 -27 -19 -40 -21 -109 -17 -58
3 -92 11 -131 31 -35 17 -56 22 -60 16 -3 -6 -10 -45 -13 -87 -8 -87 -12 -83
89 -114 190 -60 362 -3 415 139 57 152 -18 275 -212 354 -90 36 -112 57 -112
106 0 75 84 103 200 68 27 -8 52 -15 56 -15 5 0 20 117 20 155 -1 27 -185 53
-257 36z"/>
<path d="M1690 2740 l0 -430 225 0 225 0 0 85 0 85 -140 0 -140 0 0 85 0 84
113 3 112 3 3 88 3 87 -116 0 -115 0 0 85 0 85 130 0 130 0 0 85 0 85 -215 0
-215 0 0 -430z"/>
<path d="M2588 3138 c11 -18 63 -108 116 -201 l97 -167 -122 -208 c-67 -114
-129 -217 -137 -229 l-14 -23 105 0 106 0 82 146 c45 80 85 142 89 137 5 -4
42 -69 83 -143 l75 -135 101 -3 c56 -1 101 -1 101 2 0 2 -58 103 -130 224 -71
122 -130 226 -130 232 0 6 50 96 110 200 61 104 110 191 110 194 0 3 -44 6
-98 6 l-99 0 -57 -107 c-32 -60 -62 -112 -66 -116 -4 -5 -36 43 -70 107 l-61
116 -105 0 -106 0 20 -32z"/>
<path d="M3700 2740 l0 -430 85 0 85 0 0 165 0 165 113 0 c97 0 119 3 163 24
159 74 194 307 66 435 -65 65 -94 71 -321 71 l-191 0 0 -430z m363 249 c51
-23 64 -113 22 -154 -22 -23 -32 -25 -120 -25 l-95 0 0 95 0 95 85 0 c46 0 95
-5 108 -11z"/>
<path d="M4750 2740 l0 -430 225 0 225 0 0 85 0 84 -137 3 -138 3 -3 343 -2
342 -85 0 -85 0 0 -430z"/>
<path d="M6780 2740 l0 -430 85 0 85 0 0 430 0 430 -85 0 -85 0 0 -430z"/>
<path d="M2003 2039 c-96 -20 -142 -121 -95 -208 41 -76 182 -101 182 -32 0
25 -2 26 -49 23 -43 -3 -51 -1 -70 23 -26 34 -27 85 -2 116 15 19 29 24 65 24
29 0 47 5 48 13 0 6 1 17 2 24 1 16 -43 26 -81 17z"/>
<path d="M2780 1913 c-30 -76 -56 -141 -58 -145 -2 -5 10 -8 27 -8 19 0 34 6
37 15 4 10 21 15 54 15 33 0 50 -5 54 -15 3 -9 18 -15 37 -15 17 0 29 4 27 9
-26 72 -114 281 -118 281 -3 0 -30 -62 -60 -137z m74 -29 c11 -29 6 -44 -14
-44 -22 0 -23 3 -14 38 7 26 19 29 28 6z"/>
<path d="M3177 2044 c-4 -4 -7 -70 -7 -146 l0 -138 30 0 29 0 3 76 3 76 69
-81 c39 -44 74 -78 78 -75 4 3 8 68 8 145 l0 139 -30 0 -30 0 0 -77 0 -78 -48
55 c-89 104 -97 111 -105 104z"/>
<path d="M4110 1913 c-30 -76 -56 -141 -58 -145 -2 -5 10 -8 27 -8 19 0 34 6
37 15 4 10 21 15 54 15 33 0 50 -5 54 -15 3 -9 18 -15 37 -15 17 0 29 4 27 9
-26 72 -114 281 -118 281 -3 0 -30 -62 -60 -137z m74 -29 c11 -29 6 -44 -14
-44 -22 0 -23 3 -14 38 7 26 19 29 28 6z"/>
<path d="M4507 2044 c-4 -4 -7 -70 -7 -146 l0 -138 30 0 29 0 3 76 3 76 69
-81 c39 -44 74 -78 78 -75 4 3 8 68 8 145 l0 139 -30 0 -30 0 0 -77 0 -78 -48
55 c-89 104 -97 111 -105 104z"/>
<path d="M6122 1922 c-28 -70 -54 -135 -58 -144 -5 -15 0 -18 25 -18 19 0 34
6 37 15 4 11 21 15 55 15 37 0 49 -4 49 -15 0 -10 11 -15 35 -15 l35 0 -16 38
c-8 20 -34 82 -56 137 -22 55 -43 103 -47 107 -4 5 -30 -49 -59 -120z m73 -54
c6 -24 4 -28 -14 -28 -22 0 -25 10 -15 48 8 27 20 19 29 -20z"/>
<path d="M7872 1922 c-28 -70 -54 -135 -58 -144 -5 -15 0 -18 25 -18 19 0 34
6 37 15 4 11 21 15 55 15 37 0 49 -4 49 -15 0 -10 11 -15 35 -15 l35 0 -16 38
c-8 20 -34 82 -56 137 -22 55 -43 103 -47 107 -4 5 -30 -49 -59 -120z m73 -54
c6 -24 4 -28 -14 -28 -22 0 -25 10 -15 48 8 27 20 19 29 -20z"/>
<path d="M2310 1900 l0 -140 30 0 c30 0 30 1 30 55 l0 55 40 0 40 0 0 -55 c0
-54 0 -55 30 -55 l30 0 0 140 0 140 -30 0 c-30 0 -30 -1 -30 -55 l0 -55 -40 0
-40 0 0 55 c0 54 0 55 -30 55 l-30 0 0 -140z"/>
<path d="M3620 1900 l0 -140 63 0 c128 0 197 93 149 202 -25 56 -67 78 -151
78 l-61 0 0 -140z m148 54 c45 -52 13 -134 -54 -134 l-34 0 0 86 0 87 33 -7
c17 -3 42 -17 55 -32z"/>
<path d="M5273 2006 c-33 -30 -37 -39 -40 -92 -3 -47 0 -66 17 -92 23 -37 73
-62 122 -62 44 0 60 12 56 41 -3 21 -7 23 -46 21 -59 -5 -92 25 -92 80 0 57
38 92 91 85 38 -5 39 -4 39 24 0 29 -1 29 -55 29 -49 0 -60 -4 -92 -34z"/>
<path d="M5650 1900 l0 -140 30 0 c30 0 30 1 30 55 l0 55 40 0 40 0 0 -55 c0
-54 0 -55 30 -55 l30 0 0 140 0 140 -30 0 c-30 0 -30 -1 -30 -55 l0 -55 -40 0
-40 0 0 55 c0 54 0 55 -30 55 l-30 0 0 -140z"/>
<path d="M6512 1924 c3 -113 4 -116 31 -140 39 -33 95 -33 136 2 l31 26 0 114
0 114 -25 0 c-24 0 -24 -1 -27 -101 -3 -89 -6 -103 -23 -114 -13 -9 -28 -10
-42 -4 -22 8 -23 14 -23 114 l0 105 -31 0 -31 0 4 -116z"/>
<path d="M6950 1900 l0 -140 55 0 c106 0 165 49 165 138 0 93 -55 142 -157
142 l-63 0 0 -140z m110 79 c40 -15 62 -59 49 -103 -11 -38 -34 -56 -71 -56
l-28 0 0 85 c0 47 4 85 9 85 4 0 23 -5 41 -11z"/>
<path d="M7400 1900 l0 -140 30 0 c30 0 30 1 30 55 l0 55 40 0 40 0 0 -55 c0
-54 0 -55 30 -55 l30 0 0 140 0 140 -30 0 c-30 0 -30 -1 -30 -55 l0 -55 -40 0
-40 0 0 55 c0 54 0 55 -30 55 l-30 0 0 -140z"/>
<path d="M8260 1900 l0 -140 30 0 c30 0 30 1 30 55 0 38 4 55 13 55 7 0 25
-25 40 -55 24 -49 30 -55 57 -55 16 0 30 2 30 5 0 3 -13 29 -29 57 l-29 51 24
21 c34 29 36 87 4 121 -21 22 -32 25 -97 25 l-73 0 0 -140z m124 74 c24 -23 4
-54 -34 -54 -28 0 -30 3 -30 35 0 30 3 35 24 35 14 0 32 -7 40 -16z"/>
<path d="M8656 2028 c5 -7 27 -43 51 -80 39 -60 43 -73 43 -127 0 -58 1 -61
25 -61 24 0 25 3 25 63 0 57 4 68 50 140 l49 77 -34 0 c-30 0 -37 -6 -61 -45
-14 -25 -28 -45 -30 -45 -2 0 -15 20 -30 45 -23 40 -30 45 -61 45 -25 0 -32
-3 -27 -12z"/>
</g>
</svg>
