<?xml version="1.0" encoding="UTF-8"?>
<svg version="1.1" xmlns="http://www.w3.org/2000/svg" width="1080" height="1080" fill="#fff">
<path d="M0 0 C0.70511719 0.52207031 1.41023437 1.04414063 2.13671875 1.58203125 C11.67189348 9.28135702 18.13855152 19.46432828 22 31 C22.24492188 31.69996094 22.48984375 32.39992188 22.7421875 33.12109375 C28.98591057 55.05965497 20.13122511 78.70342722 9.82421875 97.80566406 C4.20180493 107.65090795 -2.22696785 117.00710261 -8.57324219 126.39404297 C-12.36460023 132.01126803 -16.05203944 137.69601957 -19.75 143.375 C-21.15072518 145.51843602 -22.55176244 147.66166814 -23.953125 149.8046875 C-28.42029629 156.64171658 -32.88116151 163.48285037 -37.34130859 170.32446289 C-44.16505493 180.79011651 -51.00396393 191.24584598 -57.84277344 201.70166016 C-61.39575261 207.1340672 -64.947835 212.56706056 -68.5 218 C-69.91666228 220.16666953 -71.33332895 222.3333362 -72.75 224.5 C-73.45125 225.5725 -74.1525 226.645 -74.875 227.75 C-81.25 237.5 -81.25 237.5 -83.37548828 240.75073242 C-84.79054489 242.91494621 -86.20558398 245.07917145 -87.62060547 247.2434082 C-91.1867617 252.69769847 -94.75323282 258.15178236 -98.3203125 263.60546875 C-105.66367453 274.83336287 -113.00177271 286.06463526 -120.32763672 297.30395508 C-123.65711176 302.41100132 -126.99008855 307.51573301 -130.328125 312.6171875 C-130.69671631 313.18056824 -131.06530762 313.74394897 -131.44506836 314.32440186 C-133.21345112 317.02719436 -134.98229874 319.72968051 -136.75195312 322.43164062 C-140.77492779 328.57906299 -144.77712244 334.7394908 -148.76660156 340.90869141 C-149.52470627 342.08066826 -149.52470627 342.08066826 -150.29812622 343.27632141 C-151.53219605 345.18414194 -152.7661516 347.09203627 -154 349 C-153.4271143 348.99886084 -152.85422859 348.99772168 -152.26398271 348.996548 C-118.31062734 348.92941474 -84.35728706 348.87794082 -50.40387979 348.84680401 C-46.32711441 348.84305189 -42.25034916 348.83916892 -38.17358398 348.83520508 C-37.36197294 348.83441815 -36.55036189 348.83363122 -35.71415658 348.83282044 C-22.57241634 348.81976628 -9.43071548 348.79611238 3.7110014 348.76854161 C17.19547072 348.74048769 30.67991942 348.72382377 44.16441673 348.71773452 C52.48517454 348.71361805 60.80582108 348.70061616 69.12654465 348.6762506 C74.83226665 348.66039357 80.53793113 348.65559956 86.24367357 348.65949587 C89.53568592 348.66141748 92.8274628 348.65683067 96.11944962 348.64238358 C99.6904709 348.62747874 103.26101439 348.63103955 106.83204651 348.63923645 C107.86999456 348.63049793 108.9079426 348.6217594 109.97734362 348.61275607 C117.23573537 348.65785123 122.11908392 349.56722642 127.8125 354.375 C131.39393515 358.67272218 132.49057935 362.2159427 132.30859375 367.87890625 C131.75394463 371.69124132 130.4796347 375.0418393 128 378 C121.67170069 382.69861322 116.0656893 382.56576687 108.3605957 382.50793457 C107.08548535 382.51417453 105.810375 382.5204145 104.49662495 382.52684355 C100.96851948 382.54350803 97.44084801 382.53530396 93.91274118 382.52289867 C90.10353087 382.51383857 86.29439454 382.52782265 82.48519897 382.53881836 C75.02742495 382.55659796 67.56981202 382.55276612 60.1120317 382.5411678 C54.0505553 382.53213154 47.98912402 382.5309103 41.92764282 382.53526306 C40.633228 382.53618246 40.633228 382.53618246 39.31266338 382.53712043 C37.55957022 382.53839934 35.80647708 382.5396962 34.05338395 382.5410108 C17.61746579 382.55241496 1.1816369 382.53930547 -15.25426662 382.51780933 C-29.35477713 382.49993849 -43.45515592 382.50304265 -57.55566406 382.52148438 C-73.93306173 382.54289399 -90.31038117 382.55131634 -106.68779087 382.53903532 C-108.43440818 382.53776113 -110.18102549 382.53650365 -111.92764282 382.53526306 C-112.78699533 382.53464596 -113.64634783 382.53402886 -114.53174132 382.53339306 C-120.58541949 382.52994043 -126.63904802 382.53576662 -132.69271851 382.54518127 C-140.07089477 382.55640365 -147.44890082 382.55335625 -154.8270576 382.5320583 C-158.59101398 382.52155101 -162.35468666 382.51742035 -166.1186409 382.53065491 C-170.19953914 382.54478679 -174.27972201 382.527905 -178.3605957 382.50793457 C-180.14381241 382.5213189 -180.14381241 382.5213189 -181.9630537 382.53497362 C-188.53458178 382.47245534 -192.68213523 381.97419786 -198 378 C-201.48017186 374.06191079 -202.54170435 370.60182924 -203.21484375 365.5390625 C-202.56271305 357.83206332 -198.14123603 351.79356157 -193.875 345.625 C-192.6068291 343.75735439 -191.3399603 341.88882414 -190.07421875 340.01953125 C-189.40825684 339.03936035 -188.74229492 338.05918945 -188.05615234 337.04931641 C-184.54381683 331.84045028 -181.11752933 326.57577997 -177.6875 321.3125 C-176.24350577 319.10024985 -174.79949522 316.88801035 -173.35546875 314.67578125 C-172.63536621 313.57186035 -171.91526367 312.46793945 -171.17333984 311.33056641 C-167.61951613 305.88445733 -164.05950134 300.44239921 -160.5 295 C-159.08069408 292.82945003 -157.66142325 290.65887711 -156.2421875 288.48828125 C-155.54061523 287.41529785 -154.83904297 286.34231445 -154.11621094 285.23681641 C-152.0173403 282.02652258 -149.91878462 278.81602308 -147.8203125 275.60546875 C-139.98540691 263.61923259 -132.14356974 251.63758285 -124.29455566 239.6605835 C-116.55238149 227.84632877 -108.82081472 216.02516552 -101.09277344 204.20166016 C-97.56243661 198.80072254 -94.03116739 193.40039461 -90.5 188 C-89.08332895 185.8333362 -87.66666228 183.66666953 -86.25 181.5 C-60.75 142.5 -60.75 142.5 -58.62329102 139.24755859 C-57.2121103 137.08916767 -55.80113893 134.93063985 -54.39038086 132.77197266 C-50.76651714 127.22752397 -47.13867347 121.68574096 -43.50390625 116.1484375 C-39.32126782 109.77515877 -35.15424681 103.39182994 -31 97 C-30.21641113 95.79730469 -30.21641113 95.79730469 -29.41699219 94.5703125 C-24.74290891 87.36857213 -20.38107203 80.1005152 -16.5 72.4375 C-16.17314209 71.79409668 -15.84628418 71.15069336 -15.50952148 70.48779297 C-10.85662049 61.00336721 -8.80646598 50.39338476 -11.875 40.05078125 C-16.19369104 30.77411925 -22.21922086 25.80944318 -31.6003418 22.03637695 C-37.35290431 20.28272325 -42.90592343 20.34429205 -48.875 20.5 C-50.1115332 20.5191748 -51.34806641 20.53834961 -52.62207031 20.55810547 C-61.10152367 20.76522177 -68.90272353 21.32789876 -77 24 C-78.2375 24.4021875 -79.475 24.804375 -80.75 25.21875 C-89.10683002 28.09385338 -96.95146629 31.79059642 -104.70996094 36.01611328 C-110.14878604 38.89234322 -115.08847269 40.63570427 -121.35546875 39.6171875 C-125.83470918 37.80256984 -128.9729493 35.91735973 -132 32 C-134.30965539 26.54081452 -134.40225675 21.68173662 -133 16 C-127.12638089 3.78287225 -106.98630854 -2.39099863 -94.95263672 -6.61669922 C-64.86029774 -16.69072432 -26.81685629 -19.97184289 0 0 Z " fill="currentColor" transform="translate(811,293)"/>
<path d="M0 0 C0.78175598 0.00215515 1.56351196 0.0043103 2.36895752 0.00653076 C28.474838 0.12142931 53.38560223 4.50341899 77.3125 15.3125 C77.94285156 15.59287109 78.57320312 15.87324219 79.22265625 16.16210938 C95.67863048 23.57220513 109.94512144 34.28553165 123.3125 46.3125 C124.0859375 47.00214844 124.859375 47.69179687 125.65625 48.40234375 C153.86581907 75.02767977 170.26712647 114.6834143 171.4921875 153.13671875 C172.26596403 191.80322477 158.35954924 224.70127015 136.75244141 256.1875 C133.85746055 260.459781 131.06202664 264.79787908 128.25 269.125 C126.95720359 271.11078929 125.66423093 273.09646385 124.37109375 275.08203125 C123.70835449 276.09990723 123.04561523 277.1177832 122.36279297 278.16650391 C118.85250418 283.5527365 115.3321796 288.93240118 111.8125 294.3125 C106.47328618 302.47534231 101.13907114 310.64140226 95.8125 318.8125 C90.63231024 326.75834289 85.44799485 334.70147534 80.25830078 342.64111328 C79.15379767 344.33094118 78.04955164 346.0209371 76.9453125 347.7109375 C76.26855469 348.74605469 75.59179688 349.78117187 74.89453125 350.84765625 C74.29874268 351.759104 73.7029541 352.67055176 73.08911133 353.60961914 C71.17654961 356.51933067 69.24508078 359.41605636 67.3125 362.3125 C68.54754272 362.31614563 69.78258545 362.31979126 71.05505371 362.32354736 C82.70790571 362.3605273 94.36049418 362.41833313 106.01314545 362.49640274 C112.00356626 362.53587103 117.99384022 362.56806289 123.984375 362.58349609 C129.76820502 362.59866664 135.55163127 362.63312007 141.33528137 362.68080902 C143.53917425 362.69561856 145.74312478 362.70354077 147.94706726 362.70438385 C151.04001653 362.70675645 154.13185265 362.73386107 157.22460938 362.76660156 C158.13092102 362.7615712 159.03723267 362.75654083 159.9710083 362.75135803 C165.82225701 362.84686027 170.47209899 363.88482772 175.3125 367.3125 C179.20737361 371.66994954 179.96263421 376.12578029 179.69140625 381.8828125 C178.87629761 387.10959161 176.74528515 390.21181968 172.49562073 393.47645569 C167.02817591 396.43262472 161.00030398 395.86082582 154.94506836 395.81420898 C153.59417662 395.81799661 152.24328877 395.82350031 150.89241028 395.83058167 C147.23947932 395.84449465 143.58702156 395.83339682 139.93411708 395.81687045 C136.10390691 395.80297709 132.27372301 395.80948479 128.4434967 395.81300354 C122.01360485 395.81570196 115.58390007 395.80226075 109.15405273 395.77905273 C101.72798163 395.7524339 94.30222298 395.75070082 86.87612051 395.7624411 C79.72081006 395.77323183 72.56561226 395.76702241 65.41031075 395.75288582 C62.37016692 395.74713836 59.33010586 395.74719887 56.28996086 395.75195122 C52.70866925 395.75673462 49.12771845 395.74656342 45.54649162 395.72499657 C43.61065167 395.71680705 41.674767 395.72326591 39.73892212 395.73019409 C32.05432813 395.66453891 27.29015595 395.09164555 21.5 389.6875 C18.6644162 385.98931142 17.84131251 381.91394033 18.3125 377.3125 C20.31748221 371.77398479 23.19999124 367.00289078 26.375 362.0625 C27.14142822 360.85823364 27.14142822 360.85823364 27.92333984 359.62963867 C33.04649522 351.62968069 38.33878305 343.74183488 43.62664795 335.8503418 C48.4077125 328.71413013 53.12037424 321.55136451 57.62426758 314.23657227 C63.05631574 305.43704662 68.77899743 296.82257781 74.44287109 288.17138672 C77.28314884 283.82826157 80.11091149 279.47704214 82.9375 275.125 C83.46577393 274.31192383 83.99404785 273.49884766 84.53833008 272.66113281 C85.59885925 271.02884997 86.65932505 269.39652594 87.71972656 267.76416016 C89.87381889 264.44849566 92.02866169 261.13331945 94.18383789 257.81835938 C95.2668611 256.15201996 96.3493833 254.48535481 97.43139648 252.81835938 C100.16567184 248.60708891 102.90852777 244.40186215 105.66796875 240.20703125 C128.44428511 205.9432634 128.44428511 205.9432634 137.3125 166.3125 C137.35246094 165.34441406 137.39242187 164.37632812 137.43359375 163.37890625 C138.12462213 130.81927478 127.05628875 100.53686358 105.3125 76.3125 C104.64089844 75.55839844 103.96929688 74.80429687 103.27734375 74.02734375 C79.52689237 48.85630463 44.54463934 35.6902299 10.484375 34.18774414 C-17.54259534 33.42272225 -43.19691133 37.56653761 -69.21020508 48.04003906 C-75.62398016 50.55355522 -81.68475661 52.16327729 -88.4375 50.25 C-92.70555801 47.7055808 -95.43490764 44.81768472 -97.6875 40.3125 C-98.2067055 33.49038125 -97.75894321 28.5790066 -94.0625 22.75 C-83.12016438 11.51970817 -59.84668435 7.77821731 -45.0625 4.375 C-44.26118652 4.1881665 -43.45987305 4.00133301 -42.63427734 3.80883789 C-28.54691322 0.76457071 -14.36794949 -0.07201497 0 0 Z " fill="currentColor" transform="translate(759.6875,188.6875)"/>
<path d="M0 0 C0 0.66 0 1.32 0 2 C-1.29296875 3.26953125 -1.29296875 3.26953125 -3.1875 4.8125 C-9.49522879 10.15418024 -15.20009963 16.12052783 -21 22 C-22.38445312 21.51080078 -22.38445312 21.51080078 -23.796875 21.01171875 C-53.54401397 10.88940151 -84.41853188 11.35168908 -113.01025391 24.95654297 C-137.38137908 36.99922626 -156.37322407 58.36694896 -165.97265625 83.8515625 C-173.64210435 107.35565059 -173.83949576 133.48151271 -166 157 C-165.62746094 158.12792969 -165.25492187 159.25585938 -164.87109375 160.41796875 C-154.82763864 186.90889391 -133.73845766 207.71240646 -108.125 219.25 C-81.75838831 230.01904895 -54.58872358 230.84182731 -27.734375 221.8671875 C-25.16548707 221.05248304 -22.65050888 220.47399611 -20 220 C-19.62230469 220.44988281 -19.24460937 220.89976562 -18.85546875 221.36328125 C-15.12599073 225.72161739 -11.23381745 229.87520236 -7.1875 233.9375 C-6.70756592 234.4219458 -6.22763184 234.9063916 -5.7331543 235.40551758 C-3.1153813 238.03316761 -3.1153813 238.03316761 0 240 C-1 243 -1 243 -4.03515625 244.6484375 C-5.37135738 245.23831646 -6.71440869 245.81282524 -8.0625 246.375 C-8.78276367 246.67954102 -9.50302734 246.98408203 -10.24511719 247.29785156 C-44.78216202 261.59681962 -82.63959403 261.941532 -117.40283203 248.0390625 C-150.56734186 234.1908836 -177.8929555 207.29408272 -191.61694336 173.97143555 C-192.79776843 170.99788603 -193.92075166 168.01208401 -195 165 C-195.37233765 163.98595093 -195.37233765 163.98595093 -195.75219727 162.95141602 C-207.24878797 130.41696958 -203.5378223 93.50331118 -189.40625 62.50390625 C-173.95035427 30.4329226 -146.57125158 4.06662731 -112.86206055 -8.03515625 C-110.91348386 -8.70801854 -108.95934887 -9.35924132 -107 -10 C-105.22302734 -10.58587891 -105.22302734 -10.58587891 -103.41015625 -11.18359375 C-72.22623675 -20.75975801 -27.74886663 -19.69274406 0 0 Z " fill="currentColor" transform="translate(470,313)"/>
<path d="M0 0 C5.47313966 4.56147547 10.53954809 9.40741321 15.55859375 14.4609375 C16.34774673 15.25150543 17.13689972 16.04207336 17.94996643 16.8565979 C20.44818661 19.36037626 22.94289044 21.86762475 25.4375 24.375 C27.13974208 26.08226248 28.84221373 27.78929609 30.54492188 29.49609375 C34.69927363 33.66141898 38.85075081 37.82959219 43 42 C45.8148241 40.62539003 48.26382247 39.16710501 50.765625 37.27734375 C74.3551236 19.70251785 101.52478012 5.2107457 131 1 C131 10.9 131 20.8 131 31 C127.37 32.155 123.74 33.31 120 34.5 C109.78859632 37.84908661 100.38565119 41.80139921 91 47 C89.79081497 47.64407544 88.58118051 48.28730784 87.37109375 48.9296875 C70.76391754 57.90562175 57.09962181 70.55362349 44 84 C38.52686034 79.43852453 33.46045191 74.59258679 28.44140625 69.5390625 C27.65225327 68.74849457 26.86310028 67.95792664 26.05003357 67.1434021 C23.55181339 64.63962374 21.05710956 62.13237525 18.5625 59.625 C16.86025792 57.91773752 15.15778627 56.21070391 13.45507812 54.50390625 C9.30072637 50.33858102 5.14924919 46.17040781 1 42 C-21.58678058 64.56131634 -37.21734003 93.75986633 -47 124 C-47.36738281 125.10601562 -47.73476562 126.21203125 -48.11328125 127.3515625 C-50.93136708 136.12135857 -52.95657413 145.02352207 -55 154 C-64.9 154 -74.8 154 -85 154 C-82.63569787 139.81418725 -82.63569787 139.81418725 -81.1875 133.75 C-81.01790771 133.0374707 -80.84831543 132.32494141 -80.67358398 131.59082031 C-77.70541199 119.42868531 -73.79370695 107.56576914 -69 96 C-68.71737305 95.30519531 -68.43474609 94.61039062 -68.14355469 93.89453125 C-59.59661081 73.09547621 -47.8973408 53.66349813 -34 36 C-33.27941406 35.06929688 -32.55882812 34.13859375 -31.81640625 33.1796875 C-11.8678662 8.07014902 -11.8678662 8.07014902 0 0 Z " fill="currentColor" transform="translate(234,239)"/>
<path d="M0 0 C9.9 0 19.8 0 30 0 C30.886875 3.650625 31.77375 7.30125 32.6875 11.0625 C42.08186223 48.81720106 59.19867026 82.80375845 85 112 C90.47313966 107.43852453 95.53954809 102.59258679 100.55859375 97.5390625 C101.34774673 96.74849457 102.13689972 95.95792664 102.94996643 95.1434021 C105.44818661 92.63962374 107.94289044 90.13237525 110.4375 87.625 C112.13974208 85.91773752 113.84221373 84.21070391 115.54492188 82.50390625 C119.69927363 78.33858102 123.85075081 74.17040781 128 70 C129.12264179 70.95368347 130.24407206 71.90879322 131.36499023 72.86450195 C131.98961655 73.39622513 132.61424286 73.9279483 133.25779724 74.4757843 C135.31441961 76.27507895 137.18933175 78.19894151 139.0625 80.1875 C160.10470104 101.33597478 187.74366623 114.52309987 216 123 C216 132.9 216 142.8 216 153 C183.81799315 147.52905884 155.24455028 132.35706186 130 112 C126.67848484 113.44299362 124.54524958 115.23394182 122.02929688 117.82299805 C120.87790222 118.99882698 120.87790222 118.99882698 119.70324707 120.19841003 C118.88336304 121.04430191 118.063479 121.89019379 117.21875 122.76171875 C115.47308536 124.5375313 113.72697821 126.31290895 111.98046875 128.08789062 C109.2298857 130.89441189 106.48336384 133.70461817 103.74462891 136.52270508 C101.10115912 139.23840728 98.44251762 141.93847158 95.78125 144.63671875 C94.55142395 145.9146656 94.55142395 145.9146656 93.29675293 147.21842957 C92.14535828 148.38007378 92.14535828 148.38007378 90.97070312 149.56518555 C90.29881958 150.25420456 89.62693604 150.94322357 88.93469238 151.65312195 C87 153 87 153 84.85734558 152.79217529 C82.70069788 151.87234484 81.35177702 150.79765227 79.64453125 149.19140625 C79.02666748 148.61438965 78.40880371 148.03737305 77.7722168 147.44287109 C77.12551025 146.82234863 76.47880371 146.20182617 75.8125 145.5625 C75.1419458 144.92650879 74.4713916 144.29051758 73.78051758 143.63525391 C68.57518054 138.65295786 63.66676404 133.49235545 59 128 C58.21496094 127.1028125 57.42992187 126.205625 56.62109375 125.28125 C45.44419444 112.26777099 36.40082245 97.9185792 28 83 C27.63777344 82.3620752 27.27554688 81.72415039 26.90234375 81.06689453 C21.42538506 71.36348202 17.0306386 61.38038623 13 51 C12.62101563 50.04738281 12.24203125 49.09476563 11.8515625 48.11328125 C6.33816971 33.71229929 0 15.49197454 0 0 Z " fill="currentColor" transform="translate(149,475)"/>
<path d="M0 0 C0.33 20.13 0.66 40.26 1 61 C7.27 61.66 13.54 62.32 20 63 C23.45864032 63.60392808 26.74276677 64.2131024 30.125 65.0625 C30.9720752 65.27092529 31.81915039 65.47935059 32.69189453 65.6940918 C49.63386278 70.06675648 65.88917763 76.1745381 81 85 C83.10087797 86.15185205 85.20479013 87.29819737 87.3125 88.4375 C88.17488281 88.91058594 89.03726563 89.38367188 89.92578125 89.87109375 C91.27165845 90.60359565 92.62946887 91.31473444 94 92 C93.45634458 95.98416091 91.56534815 97.78363228 88.74609375 100.546875 C87.89208984 101.39121094 87.03808594 102.23554688 86.15820312 103.10546875 C84.81145508 104.41451172 84.81145508 104.41451172 83.4375 105.75 C82.53580078 106.63816406 81.63410156 107.52632813 80.70507812 108.44140625 C78.47662902 110.63448315 76.24148407 112.82026044 74 115 C73.09121094 114.49210937 72.18242187 113.98421875 71.24609375 113.4609375 C58.33258628 106.34653537 45.22814215 100.97526673 31 97 C29.77925781 96.649375 28.55851563 96.29875 27.30078125 95.9375 C8.63595818 90.77739141 -9.44793848 91 -29 91 C-29 70.87 -29 50.74 -29 30 C-44.34970871 31.38148325 -44.34970871 31.38148325 -59.5 33.75 C-60.78318115 34.00160889 -60.78318115 34.00160889 -62.09228516 34.25830078 C-88.72038908 39.71659869 -118.16473892 50.12179816 -139.86328125 66.76953125 C-142 68 -142 68 -143.86303711 67.82910156 C-146.69226428 66.73141443 -148.2076764 65.13073054 -150.328125 62.96484375 C-151.12734375 62.15595703 -151.9265625 61.34707031 -152.75 60.51367188 C-153.575 59.66353516 -154.4 58.81339844 -155.25 57.9375 C-156.09046875 57.08349609 -156.9309375 56.22949219 -157.796875 55.34960938 C-159.87147597 53.23964588 -161.93875832 51.12300292 -164 49 C-157.51177506 34.45076195 -126.16973149 23.65616677 -112 18 C-106.38142669 15.8583967 -100.70267149 13.90388948 -95 12 C-94.27941406 11.7532251 -93.55882812 11.5064502 -92.81640625 11.25219727 C-62.07992034 0.79953202 -32.18802791 -0.4517618 0 0 Z " fill="currentColor" transform="translate(420,175)"/>
<path d="M0 0 C5.06623768 4.23816537 9.80038069 8.67408963 14.4375 13.375 C15.07365234 14.01566406 15.70980469 14.65632812 16.36523438 15.31640625 C17.91250332 16.87530879 19.45736492 18.43651416 21 20 C19.05626124 24.54669471 15.90545892 26.11937046 11.6875 28.375 C10.96473877 28.76929199 10.24197754 29.16358398 9.49731445 29.56982422 C-15.83900118 43.24144193 -44.04344638 53 -73 53 C-73 73.46 -73 93.92 -73 115 C-113.50143612 115.44183385 -113.50143612 115.44183385 -128.70214844 112.44873047 C-131.05885775 111.9885061 -133.42067757 111.58677605 -135.7890625 111.19140625 C-161.07495916 106.77472202 -185.35331714 97.96624177 -208 86 C-209.12921875 85.40348633 -209.12921875 85.40348633 -210.28125 84.79492188 C-219.68486349 79.78749769 -228.61461696 74.61226239 -237 68 C-234.69918689 62.77314486 -230.64778546 59.2007216 -226.6875 55.1875 C-225.92759766 54.38634766 -225.16769531 53.58519531 -224.38476562 52.75976562 C-223.64291016 52.00759766 -222.90105469 51.25542969 -222.13671875 50.48046875 C-221.12677856 49.44249146 -221.12677856 49.44249146 -220.09643555 48.38354492 C-218 47 -218 47 -215.50463867 47.11181641 C-212.9009028 48.0351414 -211.02658743 49.11877197 -208.7890625 50.73046875 C-193.91403851 61.0287984 -176.9768078 67.9894388 -160 74 C-158.90389404 74.39010254 -158.90389404 74.39010254 -157.78564453 74.78808594 C-139.92463707 80.97784147 -120.74705826 83.5579186 -102 85 C-102 64.87 -102 44.74 -102 24 C-93.75 24 -85.5 24 -77 24 C-61.21699569 22.55054042 -46.96824813 19.97506278 -32 15 C-30.83597656 14.62101563 -29.67195312 14.24203125 -28.47265625 13.8515625 C-18.50057959 10.30537635 -9.2697473 5.05502175 0 0 Z " fill="currentColor" transform="translate(493,578)"/>
<path d="M0 0 C12.78411612 1.30450165 24.6881555 4.37501384 37 8 C38.07765625 8.30679688 39.1553125 8.61359375 40.265625 8.9296875 C68.91242889 17.72475887 96.71732004 33.24115682 120 52 C120.93328125 52.73992187 121.8665625 53.47984375 122.828125 54.2421875 C129.83493849 59.86765776 136.46202156 65.84347756 143 72 C143.89847656 72.83273438 144.79695312 73.66546875 145.72265625 74.5234375 C146.53605469 75.29945313 147.34945312 76.07546875 148.1875 76.875 C148.90292969 77.55304688 149.61835937 78.23109375 150.35546875 78.9296875 C152.33783741 81.42530601 152.8124047 82.82192856 153 86 C151.49160385 88.25506306 151.49160385 88.25506306 149.15423584 90.58747864 C148.27645981 91.47783813 147.39868378 92.36819763 146.49430847 93.28553772 C145.50397915 94.2594162 144.51335324 95.23299316 143.52246094 96.20629883 C142.49173643 97.24024149 141.46231196 98.27548154 140.43409729 99.31192017 C137.63556555 102.12501113 134.81861306 104.91896718 131.99763393 107.70952439 C129.05167741 110.62916321 126.12151523 113.56457345 123.18927002 116.49797058 C118.26281331 121.4216164 113.32486782 126.33349641 108.37939453 131.23803711 C102.65663422 136.91360658 96.94971948 142.60471823 91.25160956 148.30502874 C85.77592243 153.78254514 80.2917197 159.25144684 74.80268097 164.71558189 C72.4638684 167.0437859 70.12763633 169.37453536 67.79332733 171.70725441 C65.04583013 174.45174411 62.29083148 177.18847635 59.52976799 179.91931534 C58.51574572 180.9245547 57.50426688 181.93236695 56.49549294 182.942873 C55.12181865 184.31801326 53.7380315 185.68302961 52.35369873 187.04743958 C51.58085918 187.81525159 50.80801964 188.5830636 50.01176071 189.37414265 C48 191 48 191 45 191 C43.01953125 188.83984375 43.01953125 188.83984375 40.8125 185.9375 C37.37300175 181.55790975 33.92519723 177.94395261 29.53125 174.53515625 C27.74185034 172.74119179 27.38433259 171.47147207 27 169 C27.47308594 168.59910156 27.94617188 168.19820312 28.43359375 167.78515625 C35.0675714 162.08226318 41.47759177 156.12532268 47.0625 149.375 C49.02331024 147.02581833 51.05146281 145.03262429 53.39648438 143.07006836 C59.42321311 137.85380651 64.97429737 132.14932443 70.59375 126.50390625 C71.79278954 125.30299797 72.99205277 124.102313 74.19152832 122.90184021 C77.32380208 119.76577715 80.4530591 116.62672111 83.58166504 113.48699951 C86.7843727 110.27399999 89.98996908 107.06388529 93.1953125 103.85351562 C99.46634789 97.57180629 105.73419523 91.28692642 112 85 C82.03745478 54.82907918 40.85763217 38.60160677 0 30 C0 20.1 0 10.2 0 0 Z " fill="currentColor" transform="translate(446,178)"/>
<path d="M0 0 C3.89696341 0.55963616 5.68712874 2.30612588 8.43598938 5.0415802 C9.31800522 5.91224625 10.20002106 6.78291229 11.10876465 7.67996216 C12.07828369 8.65212448 13.04763855 9.62445056 14.0168457 10.59692383 C15.04307023 11.61580901 16.06991593 12.63406887 17.09733582 13.65174866 C19.8851946 16.41737375 22.6633185 19.19258543 25.43913293 21.97029328 C27.75538986 24.28666978 30.07596978 26.59869171 32.39645165 28.91083449 C37.86813249 34.36327626 43.33159371 39.82386123 48.7902832 45.28930664 C54.42794045 50.93361233 60.08021041 56.56297899 65.73968822 62.18539792 C70.59454408 67.00960976 75.43973477 71.84338147 80.2773425 76.68488902 C83.16846516 79.57808389 86.06327545 82.467337 88.96761513 85.34726906 C91.69641943 88.05389499 94.41301066 90.7722008 97.12053108 93.50011253 C98.11797806 94.50098489 99.1197402 95.4975774 100.12599564 96.48959351 C101.49512849 97.84067483 102.84754607 99.20863354 104.19892883 100.57746887 C104.96158711 101.33941464 105.7242454 102.10136042 106.51001453 102.88639545 C108 105 108 105 107.82399273 107.15799999 C106.08775257 111.03928956 102.88235528 113.93572092 100 117 C99.35675781 117.68449219 98.71351563 118.36898437 98.05078125 119.07421875 C94.55599183 122.68623381 94.55599183 122.68623381 93 124 C92.34 124 91.68 124 91 124 C91 124.66 91 125.32 91 126 C89.43059199 127.43812673 87.79125965 128.8003005 86.125 130.125 C85.114375 130.93195313 84.10375 131.73890625 83.0625 132.5703125 C82.051875 133.37210938 81.04125 134.17390625 80 135 C79.175 135.67804688 78.35 136.35609375 77.5 137.0546875 C50.92503075 158.82168534 19.38397637 175.30401483 -13.7265625 184.37548828 C-15.85465109 184.96007275 -17.97444513 185.56806035 -20.09375 186.18359375 C-28.51652622 188.55902547 -36.11499406 189.73071344 -45 191 C-45 181.1 -45 171.2 -45 161 C-39.2765625 159.6696875 -39.2765625 159.6696875 -33.4375 158.3125 C3.07954122 149.59951377 40.13274154 132.86725846 67 106 C38.95 77.95 10.9 49.9 -18 21 C-16.15084268 17.30168535 -15.41057652 16.28169214 -12.375 13.875 C-7.53256882 9.80416499 -3.80387154 5.02798977 0 0 Z " fill="currentColor" transform="translate(491,499)"/>
<path d="M0 0 C2 0 2 0 4.625 2.375 C7 5 7 5 7 7 C7.66 7 8.32 7 9 7 C9 7.66 9 8.32 9 9 C9.556875 9.226875 10.11375 9.45375 10.6875 9.6875 C13.6469509 11.36718835 15.66126784 13.54133285 18 16 C18.61875 16.495 19.2375 16.99 19.875 17.5 C21 19 21 19 20.71801758 21.27294922 C19.96867083 24.11898906 18.94343817 26.49783568 17.63671875 29.1328125 C16.92418945 30.59074219 16.92418945 30.59074219 16.19726562 32.078125 C15.69904297 33.08359375 15.20082031 34.0890625 14.6875 35.125 C-5.73025908 76.33912561 -8.15835146 122.36867003 6.37939453 165.94897461 C9.84695221 175.8368827 14.1507599 185.92448858 19.76953125 194.79296875 C21 197 21 197 21 201 C19.671875 202.5 19.671875 202.5 17.75 204 C13.76595292 207.2746574 10.12418051 210.77675506 6.5 214.4375 C5.95956055 214.98212891 5.41912109 215.52675781 4.86230469 216.08789062 C3.57277694 217.38985755 2.28608076 218.69462803 1 220 C-19.3009523 200.79757621 -29.82738718 160.88203031 -32 134 C-32 131.03 -32 128.06 -32 125 C-52.46 125 -72.92 125 -94 125 C-94 115.1 -94 105.2 -94 95 C-73.54 95 -53.08 95 -32 95 C-32 92.03 -32 89.06 -32 86 C-29.26255935 58.02596369 -19.14316131 21.55005002 0 0 Z " fill="currentColor" transform="translate(240,324)"/>
<path d="M0 0 C6 0 6 0 8.7890625 2.5703125 C9.75199389 3.74093498 10.69631791 4.92702528 11.625 6.125 C12.6792178 7.41965344 13.73391875 8.71391359 14.7890625 10.0078125 C15.32176758 10.67329102 15.85447266 11.33876953 16.40332031 12.02441406 C18.86839086 15.07446771 21.43500628 18.034002 24 21 C24.9914361 22.15577785 25.98231878 23.31203064 26.97265625 24.46875 C29.06267514 26.90721902 31.15401069 29.34455176 33.24609375 31.78125 C33.78041016 32.40386719 34.31472656 33.02648437 34.86523438 33.66796875 C35.87790832 34.84795404 36.89090404 36.02766329 37.90429688 37.20703125 C38.59942383 38.01720703 38.59942383 38.01720703 39.30859375 38.84375 C39.70876709 39.30974609 40.10894043 39.77574219 40.52124023 40.25585938 C42.69775856 42.82297955 44.84538828 45.41446594 47 48 C47.33 32.82 47.66 17.64 48 2 C54.27 2 60.54 2 67 2 C67 31.37 67 60.74 67 91 C60 91 60 91 58.171875 89.671875 C57.70265625 89.03765625 57.2334375 88.4034375 56.75 87.75 C53.81056155 84.01611873 50.73667467 80.47748239 47.5 77 C43.85599967 73.04629037 40.26495046 69.05432087 36.7421875 64.9921875 C34.000642 61.85723637 31.20137817 58.77465648 28.40625 55.6875 C25.24059965 52.15183857 22.12510524 48.57154885 19 45 C18.67 59.52 18.34 74.04 18 89 C12.06 89 6.12 89 0 89 C0 59.63 0 30.26 0 0 Z " fill="currentColor" transform="translate(746,760)"/>
<path d="M0 0 C7.26 0 14.52 0 22 0 C26.25 7.625 26.25 7.625 27.56347656 9.99072266 C27.91893555 10.6254248 28.27439453 11.26012695 28.640625 11.9140625 C28.99672852 12.5529541 29.35283203 13.1918457 29.71972656 13.85009766 C31.37593229 16.63128523 33.20444808 19.30667212 35 22 C38.96 14.74 42.92 7.48 47 0 C53.93 0 60.86 0 68 0 C66.9972013 4.01119482 65.62927278 6.66756992 63.578125 10.234375 C63.2362616 10.83123108 62.89439819 11.42808716 62.54217529 12.04302979 C61.81814267 13.30505401 61.09179033 14.56574984 60.36328125 15.82519531 C59.26328951 17.72702314 58.1700683 19.63260453 57.078125 21.5390625 C56.36998173 22.77094261 55.66165126 24.00271513 54.953125 25.234375 C54.61051636 25.83270142 54.26790771 26.43102783 53.91491699 27.04748535 C52.02275664 30.32648338 50.01264232 33.46655146 47.859375 36.578125 C45.61880895 39.7423495 45.61880895 39.7423495 46.70214844 42.39257812 C48.01885805 45.03788637 49.4079656 47.59354152 50.90625 50.140625 C51.48101074 51.121521 52.05577148 52.10241699 52.64794922 53.11303711 C53.25912598 54.14823486 53.87030273 55.18343262 54.5 56.25 C55.43416748 57.8424353 55.43416748 57.8424353 56.38720703 59.46704102 C59.29768322 64.42531182 62.22117645 69.37584363 65.1484375 74.32421875 C65.61314453 75.11086914 66.07785156 75.89751953 66.55664062 76.70800781 C67.42019452 78.1683734 68.28599787 79.62741169 69.15429688 81.08496094 C72 85.88980263 72 85.88980263 72 87 C64.74 87 57.48 87 50 87 C45.05 78.09 40.1 69.18 35 60 C30.91527186 66.39108842 30.91527186 66.39108842 27.87890625 72.9375 C23.27852012 83.36121076 23.27852012 83.36121076 19 87 C11.92522187 89.30151213 4.21877684 88.179726 -3 87 C-1.44944021 81.31155578 1.37909972 76.7247732 4.4375 71.75 C4.96303467 70.88044678 5.48856934 70.01089355 6.0300293 69.11499023 C8.72669143 64.66406739 11.46925679 60.24724633 14.2734375 55.86328125 C14.78463135 55.0547168 15.2958252 54.24615234 15.82250977 53.41308594 C16.79711653 51.87556113 17.78415483 50.34582866 18.78491211 48.82519531 C19.22327393 48.13135742 19.66163574 47.43751953 20.11328125 46.72265625 C20.50298096 46.12203369 20.89268066 45.52141113 21.29418945 44.90258789 C22.2980314 42.19662444 21.85803666 40.74712764 21 38 C19.92852399 35.85339284 18.77842848 33.74528786 17.578125 31.66796875 C17.2362616 31.07252762 16.89439819 30.47708649 16.54217529 29.86360168 C15.45130058 27.96772073 14.35066985 26.07770737 13.25 24.1875 C12.52543112 22.92938789 11.80146703 21.67092726 11.078125 20.41210938 C8.13126562 15.29932685 5.16741769 10.20926012 1.984375 5.23828125 C0 2 0 2 0 0 Z " fill="currentColor" transform="translate(256,762)"/>
<path d="M0 0 C44.80313199 0 44.80313199 0 53 8 C58.90503898 14.57947236 60.26054119 23.10000284 59.87890625 31.7421875 C58.71060863 39.47463155 54.81682221 46.06255071 48.6875 50.9375 C39.5433013 56.65262419 28.32093232 55.1529027 18 55 C18 65.56 18 76.12 18 87 C12.06 87 6.12 87 0 87 C0 58.29 0 29.58 0 0 Z M18 19 C18 24.94 18 30.88 18 37 C20.701875 37.0825 23.40375 37.165 26.1875 37.25 C27.45049927 37.30462402 27.45049927 37.30462402 28.73901367 37.36035156 C32.61796362 37.41752377 34.58468587 37.25081716 37.98828125 35.1953125 C40.78293805 32.14560935 41 30.09966006 41 26 C39.45204133 21.67606226 39.45204133 21.67606226 36 19 C34.62451844 18.91691362 33.24514204 18.89263984 31.8671875 18.90234375 C31.14128418 18.90484131 30.41538086 18.90733887 29.66748047 18.90991211 C28.74596191 18.91901611 27.82444336 18.92812012 26.875 18.9375 C22.481875 18.9684375 22.481875 18.9684375 18 19 Z " fill="currentColor" transform="translate(370,762)"/>
<path d="M0 0 C0.99 0 1.98 0 3 0 C3.72981079 1.80573486 3.72981079 1.80573486 4.47436523 3.64794922 C5.9479113 7.29381762 7.42156587 10.93964215 8.89526367 14.58544922 C10.60011225 18.80311814 12.30465805 23.02090927 14.0090332 27.23876953 C18.34778435 37.9746095 22.69128775 48.70847853 27.046875 59.4375 C28.21818992 62.32453185 29.38939522 65.21160814 30.56057739 68.09869385 C31.31229243 69.95063209 32.06463291 71.80231658 32.81759644 73.65374756 C33.86298382 76.22428289 34.90631614 78.79564328 35.94921875 81.3671875 C36.26078918 82.13160156 36.57235962 82.89601563 36.89337158 83.68359375 C39 88.88622414 39 88.88622414 39 90 C32.07 90 25.14 90 18 90 C17.01 87.03 16.02 84.06 15 81 C5.76 81 -3.48 81 -13 81 C-13.99 83.97 -14.98 86.94 -16 90 C-22.93 90 -29.86 90 -37 90 C-28.39824802 68.40051467 -19.67450047 46.85065626 -10.9352417 25.30651855 C-10.07994368 23.19715929 -9.2255176 21.08745018 -8.37158203 18.97753906 C-7.08359437 15.79648657 -5.79257753 12.61668952 -4.5 9.4375 C-4.14478271 8.55876221 -3.78956543 7.68002441 -3.42358398 6.7746582 C-1.11536784 1.11536784 -1.11536784 1.11536784 0 0 Z M1 45 C-3.0183841 54.31938459 -3.0183841 54.31938459 -6 64 C-1.38 64 3.24 64 8 64 C6.29446483 57.50272314 4.47390635 51.2436684 2 45 C1.67 45 1.34 45 1 45 Z " fill="currentColor" transform="translate(595,759)"/>
<path d="M0 0 C14.85 0 29.7 0 45 0 C45 5.94 45 11.88 45 18 C44 19 44 19 41.59155273 19.11352539 C40.54942627 19.10828857 39.5072998 19.10305176 38.43359375 19.09765625 C37.30888672 19.09443359 36.18417969 19.09121094 35.02539062 19.08789062 C33.84138672 19.07951172 32.65738281 19.07113281 31.4375 19.0625 C30.24962891 19.05798828 29.06175781 19.05347656 27.83789062 19.04882812 C24.89190588 19.03699686 21.94594684 19.01906076 19 19 C19 24.28 19 29.56 19 35 C26.26 35 33.52 35 41 35 C41 40.94 41 46.88 41 53 C33.74 53 26.48 53 19 53 C19 58.28 19 63.56 19 69 C27.91 69 36.82 69 46 69 C46 74.94 46 80.88 46 87 C30.82 87 15.64 87 0 87 C0 58.29 0 29.58 0 0 Z " fill="currentColor" transform="translate(168,762)"/>
<path d="M0 0 C0.79712402 0.00128906 1.59424805 0.00257813 2.41552734 0.00390625 C8.4154057 0.10152477 13.74550162 0.96261124 19.3125 3.3125 C19.17110519 5.56278329 19.02421997 7.81272206 18.875 10.0625 C18.79378906 11.31546875 18.71257813 12.5684375 18.62890625 13.859375 C18.38734478 16.49567553 18.06966066 18.79287294 17.3125 21.3125 C16.47847656 21.08433594 15.64445313 20.85617187 14.78515625 20.62109375 C7.86074689 18.85231564 2.33490136 17.72679647 -4.6875 19.3125 C-7.16185819 21.3010253 -7.62839123 21.97262459 -8.1875 25.1875 C-7.51432696 29.39483151 -5.89115623 30.55908734 -2.6875 33.3125 C0.55106549 34.92806101 0.55106549 34.92806101 4.0625 36.1875 C12.6635763 39.62342144 19.79850245 44.03683782 24.3125 52.3125 C26.69526327 59.46078982 26.42602947 67.97102012 23.25 74.8125 C19.69175091 80.89950477 14.76007634 85.62367427 7.92578125 87.83984375 C-4.93029105 90.16508254 -17.03994006 88.13627997 -28.6875 82.3125 C-28.0275 76.0425 -27.3675 69.7725 -26.6875 63.3125 C-20.6875 65.3125 -20.6875 65.3125 -17.125 66.875 C-10.6123288 69.59848068 -3.42927787 70.7156667 3.3125 68.1875 C5.52138204 66.38607602 5.52138204 66.38607602 6.4375 63.4375 C6.62344552 60.16952783 6.62344552 60.16952783 4.2265625 57.796875 C1.08019025 55.11444504 -1.58136992 53.88569108 -5.4375 52.4375 C-13.97145674 49.01229888 -21.24248834 44.6361369 -25.81640625 36.40625 C-28.68783512 29.50451963 -27.95319691 22.30121685 -25.6875 15.3125 C-22.60627806 8.45468308 -18.10104696 4.57077806 -11.51171875 1.19921875 C-7.63910124 -0.01666531 -4.03665278 -0.02680492 0 0 Z " fill="currentColor" transform="translate(887.6875,761.6875)"/>
<path d="M0 0 C5.94 0 11.88 0 18 0 C18 22.77 18 45.54 18 69 C26.91 69 35.82 69 45 69 C45 74.94 45 80.88 45 87 C30.15 87 15.3 87 0 87 C0 58.29 0 29.58 0 0 Z " fill="currentColor" transform="translate(475,762)"/>
<path d="M0 0 C5.94 0 11.88 0 18 0 C18 28.71 18 57.42 18 87 C12.06 87 6.12 87 0 87 C0 58.29 0 29.58 0 0 Z " fill="currentColor" transform="translate(677,762)"/>
<path d="M0 0 C14.03448276 0 14.03448276 0 19 3 C22.42838242 6.6088236 23.86527305 9.24854969 24.25 14.25 C23.96264356 18.56034663 23.12771765 21.24103215 21 25 C16.45307758 28.79586827 12.8750182 29.53743732 7.125 29.25 C4.77375 29.1675 2.4225 29.085 0 29 C0 19.43 0 9.86 0 0 Z M7 7 C7 12.28 7 17.56 7 23 C13.53522754 22.71346336 13.53522754 22.71346336 15.9375 20.3125 C17.3613395 17.2135552 17.55153827 15.37817188 17 12 C14.93714781 9.02041215 14.93714781 9.02041215 12 7 C10.35 7 8.7 7 7 7 Z " fill="currentColor" transform="translate(694,875)"/>
<path d="M0 0 C14.54545455 0 14.54545455 0 20.375 5.0625 C24.08126775 9.48151155 23.44066865 14.47161142 23 20 C21.29798282 24.21025302 18.77561738 26.52225109 15 29 C12.20704934 29.28942494 9.94329617 29.38605897 7.1875 29.25 C4.815625 29.1675 2.44375 29.085 0 29 C0 19.43 0 9.86 0 0 Z M7 7 C7 12.28 7 17.56 7 23 C12.47227607 22.44076321 12.47227607 22.44076321 14.875 20.9375 C16.71816648 17.76315773 16.6362382 14.5134487 16 11 C14.47722993 8.39279682 14.47722993 8.39279682 12 7 C10.35 7 8.7 7 7 7 Z " fill="currentColor" transform="translate(362,875)"/>
<path d="M0 0 C4.5 1.125 4.5 1.125 6.796875 3.94140625 C7.52197266 4.81635742 7.52197266 4.81635742 8.26171875 5.70898438 C8.99841797 6.62647461 8.99841797 6.62647461 9.75 7.5625 C10.25660156 8.17802734 10.76320313 8.79355469 11.28515625 9.42773438 C12.53185595 10.94494438 13.7670638 12.47158426 15 14 C15.33 9.38 15.66 4.76 16 0 C17.98 0 19.96 0 22 0 C22 9.9 22 19.8 22 30 C17.72378752 28.93094688 17.10704425 28.40648066 14.4375 25.1875 C13.56931641 24.15689453 13.56931641 24.15689453 12.68359375 23.10546875 C11.0817073 21.10218152 9.53899706 19.05199609 8 17 C7.67 20.96 7.34 24.92 7 29 C4.69 29 2.38 29 0 29 C0 19.43 0 9.86 0 0 Z " fill="currentColor" transform="translate(450,875)"/>
<path d="M0 0 C4.5 1.125 4.5 1.125 6.796875 3.94140625 C7.52197266 4.81635742 7.52197266 4.81635742 8.26171875 5.70898438 C8.99841797 6.62647461 8.99841797 6.62647461 9.75 7.5625 C10.25660156 8.17802734 10.76320313 8.79355469 11.28515625 9.42773438 C12.53185595 10.94494438 13.7670638 12.47158426 15 14 C15.33 9.38 15.66 4.76 16 0 C17.98 0 19.96 0 22 0 C22 9.9 22 19.8 22 30 C17.72378752 28.93094688 17.10704425 28.40648066 14.4375 25.1875 C13.56931641 24.15689453 13.56931641 24.15689453 12.68359375 23.10546875 C11.0817073 21.10218152 9.53899706 19.05199609 8 17 C7.67 20.96 7.34 24.92 7 29 C4.69 29 2.38 29 0 29 C0 19.43 0 9.86 0 0 Z " fill="currentColor" transform="translate(317,875)"/>
<path d="M0 0 C14 0 14 0 19 4 C20.52846661 7.05693322 20.23242445 9.62984547 20 13 C18.625 15.4375 18.625 15.4375 17 17 C16.34 17 15.68 17 15 17 C16.98 20.96 18.96 24.92 21 29 C18.36 29 15.72 29 13 29 C12.66226563 28.36191406 12.32453125 27.72382812 11.9765625 27.06640625 C11.53054688 26.24011719 11.08453125 25.41382813 10.625 24.5625 C10.18414063 23.73878906 9.74328125 22.91507813 9.2890625 22.06640625 C8.16581441 19.86533422 8.16581441 19.86533422 6 19 C6 22.3 6 25.6 6 29 C4.02 29 2.04 29 0 29 C0 19.43 0 9.86 0 0 Z M6 7 C6 8.65 6 10.3 6 12 C7.98 12 9.96 12 12 12 C12.59070014 10.05396726 12.59070014 10.05396726 13 8 C11.87465895 6.64381501 11.87465895 6.64381501 8.9375 6.9375 C7.968125 6.958125 6.99875 6.97875 6 7 Z " fill="currentColor" transform="translate(826,875)"/>
<path d="M0 0 C2.31 0 4.62 0 7 0 C7 3.96 7 7.92 7 12 C9.31 12 11.62 12 14 12 C13.98839844 11.21753906 13.97679687 10.43507813 13.96484375 9.62890625 C13.95582031 8.61699219 13.94679688 7.60507812 13.9375 6.5625 C13.92589844 5.55316406 13.91429687 4.54382813 13.90234375 3.50390625 C14 1 14 1 15 0 C16.98 0 18.96 0 21 0 C21 9.57 21 19.14 21 29 C18.69 29 16.38 29 14 29 C14 25.37 14 21.74 14 18 C11.69 18 9.38 18 7 18 C7 21.63 7 25.26 7 29 C4.69 29 2.38 29 0 29 C0 19.43 0 9.86 0 0 Z " fill="currentColor" transform="translate(739,875)"/>
<path d="M0 0 C2.31 0 4.62 0 7 0 C7 3.96 7 7.92 7 12 C9.31 12 11.62 12 14 12 C13.98839844 11.21753906 13.97679687 10.43507813 13.96484375 9.62890625 C13.95582031 8.61699219 13.94679688 7.60507812 13.9375 6.5625 C13.92589844 5.55316406 13.91429687 4.54382813 13.90234375 3.50390625 C14 1 14 1 15 0 C16.98 0 18.96 0 21 0 C21 9.57 21 19.14 21 29 C18.69 29 16.38 29 14 29 C14 25.37 14 21.74 14 18 C11.69 18 9.38 18 7 18 C7 21.63 7 25.26 7 29 C4.69 29 2.38 29 0 29 C0 19.43 0 9.86 0 0 Z " fill="currentColor" transform="translate(564,875)"/>
<path d="M0 0 C1.98 0 3.96 0 6 0 C6.33 6.93 6.66 13.86 7 21 C8.65 21.33 10.3 21.66 12 22 C13.61780157 20.38219843 13.22272147 18.54364482 13.31640625 16.30859375 C13.35830078 15.36435547 13.40019531 14.42011719 13.44335938 13.44726562 C13.50233398 11.95743164 13.50233398 11.95743164 13.5625 10.4375 C13.60568359 9.44041016 13.64886719 8.44332031 13.69335938 7.41601562 C13.79980298 4.9441585 13.90181928 2.4721969 14 0 C16.31 0 18.62 0 21 0 C21.08741124 3.56234428 21.14052896 7.12441108 21.1875 10.6875 C21.21263672 11.69490234 21.23777344 12.70230469 21.26367188 13.74023438 C21.35589931 23.0552049 21.35589931 23.0552049 18 27 C14.8054567 29.73817998 13.26320917 30 9 30 C6.13204482 29.72245595 4.7160669 28.81355466 2.26953125 27.20703125 C-1.22210695 22.27306402 -0.53593158 17.56890658 -0.3125 11.6875 C-0.28994141 10.56537109 -0.26738281 9.44324219 -0.24414062 8.28710938 C-0.18533776 5.52337464 -0.10320401 2.76237446 0 0 Z " fill="currentColor" transform="translate(651,875)"/>
<path d="M0 0 C1.98 0 3.96 0 6 0 C6 3.96 6 7.92 6 12 C8.64 12 11.28 12 14 12 C14 8.04 14 4.08 14 0 C15.98 0 17.96 0 20 0 C20 9.57 20 19.14 20 29 C18.02 29 16.04 29 14 29 C14 25.37 14 21.74 14 18 C11.36 18 8.72 18 6 18 C6 21.63 6 25.26 6 29 C4.02 29 2.04 29 0 29 C0 19.43 0 9.86 0 0 Z " fill="currentColor" transform="translate(231,875)"/>
<path d="M0 0 C0.66 0 1.32 0 2 0 C3.57328857 3.78753248 5.13966727 7.57784014 6.69970703 11.37084961 C7.23134392 12.66069346 7.76486022 13.94976435 8.30029297 15.23803711 C9.06972387 17.09023857 9.83183735 18.94547446 10.59375 20.80078125 C11.05458984 21.91622314 11.51542969 23.03166504 11.99023438 24.1809082 C13 27 13 27 13 30 C10.69 30 8.38 30 6 30 C5.67 29.01 5.34 28.02 5 27 C3.700625 27.12375 2.40125 27.2475 1.0625 27.375 C-0.03384766 27.47941406 -0.03384766 27.47941406 -1.15234375 27.5859375 C-1.76207031 27.72257813 -2.37179687 27.85921875 -3 28 C-3.33 28.66 -3.66 29.32 -4 30 C-6.64 30 -9.28 30 -12 30 C-8.28723055 19.86229618 -4.35381971 9.88100928 0 0 Z M0 17 C-0.33 18.32 -0.66 19.64 -1 21 C-0.01 21 0.98 21 2 21 C1.67 19.68 1.34 18.36 1 17 C0.67 17 0.34 17 0 17 Z " fill="currentColor" transform="translate(792,874)"/>
<path d="M0 0 C0.66 0 1.32 0 2 0 C3.57328857 3.78753248 5.13966727 7.57784014 6.69970703 11.37084961 C7.23134392 12.66069346 7.76486022 13.94976435 8.30029297 15.23803711 C9.06972387 17.09023857 9.83183735 18.94547446 10.59375 20.80078125 C11.05458984 21.91622314 11.51542969 23.03166504 11.99023438 24.1809082 C13 27 13 27 13 30 C10.69 30 8.38 30 6 30 C5.67 29.01 5.34 28.02 5 27 C3.700625 27.12375 2.40125 27.2475 1.0625 27.375 C-0.03384766 27.47941406 -0.03384766 27.47941406 -1.15234375 27.5859375 C-1.76207031 27.72257813 -2.37179687 27.85921875 -3 28 C-3.33 28.66 -3.66 29.32 -4 30 C-6.64 30 -9.28 30 -12 30 C-8.28723055 19.86229618 -4.35381971 9.88100928 0 0 Z M0 17 C-0.33 18.32 -0.66 19.64 -1 21 C-0.01 21 0.98 21 2 21 C1.67 19.68 1.34 18.36 1 17 C0.67 17 0.34 17 0 17 Z " fill="currentColor" transform="translate(617,874)"/>
<path d="M0 0 C0.66 0 1.32 0 2 0 C3.71122457 4.11080742 5.42016239 8.22255542 7.12695312 12.33520508 C7.70835029 13.73520815 8.29038028 15.1349486 8.87304688 16.53442383 C9.70868332 18.54179879 10.54206653 20.55009599 11.375 22.55859375 C12.12910156 24.37315063 12.12910156 24.37315063 12.8984375 26.22436523 C14 29 14 29 14 30 C11.36 30 8.72 30 6 30 C5.67 29.34 5.34 28.68 5 28 C2.36 28 -0.28 28 -3 28 C-3.33 28.66 -3.66 29.32 -4 30 C-6.64 30 -9.28 30 -12 30 C-8 20 -4 10 0 0 Z M1 17 C0.34 18.32 -0.32 19.64 -1 21 C0.32 20.67 1.64 20.34 3 20 C2.34 19.01 1.68 18.02 1 17 Z " fill="currentColor" transform="translate(416,874)"/>
<path d="M0 0 C0.66 0 1.32 0 2 0 C3.71122457 4.11080742 5.42016239 8.22255542 7.12695312 12.33520508 C7.70835029 13.73520815 8.29038028 15.1349486 8.87304688 16.53442383 C9.70868332 18.54179879 10.54206653 20.55009599 11.375 22.55859375 C12.12910156 24.37315063 12.12910156 24.37315063 12.8984375 26.22436523 C14 29 14 29 14 30 C11.36 30 8.72 30 6 30 C5.67 29.34 5.34 28.68 5 28 C2.36 28 -0.28 28 -3 28 C-3.33 28.66 -3.66 29.32 -4 30 C-6.64 30 -9.28 30 -12 30 C-8 20 -4 10 0 0 Z M1 17 C0.34 18.32 -0.32 19.64 -1 21 C0.32 20.67 1.64 20.34 3 20 C2.34 19.01 1.68 18.02 1 17 Z " fill="currentColor" transform="translate(283,874)"/>
<path d="M0 0 C0.66 0.33 1.32 0.66 2 1 C2 3.31 2 5.62 2 8 C1.38511719 7.96519531 0.77023438 7.93039062 0.13671875 7.89453125 C-0.67152344 7.86746094 -1.47976562 7.84039063 -2.3125 7.8125 C-3.11300781 7.77769531 -3.91351563 7.74289062 -4.73828125 7.70703125 C-7.52111393 8.0675018 -8.31047214 8.80832144 -10 11 C-11.17724372 14.19537581 -11.17354048 15.55083641 -9.9375 18.75 C-8.14550536 21.25299435 -8.14550536 21.25299435 -5.0625 21.8125 C-2.71190524 21.95641396 -0.35499617 22 2 22 C2.33 23.98 2.66 25.96 3 28 C-1.70843679 30.17312467 -5.00514241 30.11343458 -9.8828125 28.82421875 C-14.26310319 27.11897643 -16.36428096 24.3003344 -18.375 20.1875 C-19.45107816 14.69950139 -18.85188172 10.67221226 -16.3125 5.6875 C-11.52088712 0.11886882 -6.95654804 -0.46376987 0 0 Z " fill="currentColor" transform="translate(207,875)"/>
<path d="M0 0 C0.66 0.33 1.32 0.66 2 1 C1.67 3.31 1.34 5.62 1 8 C0.07767578 7.93039062 0.07767578 7.93039062 -0.86328125 7.859375 C-5.77033599 7.54006247 -5.77033599 7.54006247 -10.125 9.4375 C-11.46783833 13.37009796 -10.71489299 16.9690371 -10 21 C-8.7625 21.165 -7.525 21.33 -6.25 21.5 C-5.55390625 21.5928125 -4.8578125 21.685625 -4.140625 21.78125 C-1.69541605 22.06777357 -1.69541605 22.06777357 2 22 C2.33 23.98 2.66 25.96 3 28 C-1.70905784 30.17341131 -5.00365218 30.10952064 -9.8828125 28.828125 C-14.03076587 27.2056783 -16.21078058 24.42811134 -18.3125 20.625 C-19.52968161 15.97757932 -19.49425169 12.3266756 -17.8125 7.8125 C-13.15397943 0.58376119 -7.99016208 -0.25365594 0 0 Z " fill="currentColor" transform="translate(541,875)"/>
<path d="M0 0 C5.19689119 -0.70466321 5.19689119 -0.70466321 8 0 C10.21956005 2.40408404 11.62753981 5.04393189 13 8 C13.35191406 7.4225 13.70382812 6.845 14.06640625 6.25 C15.59101256 3.9571195 17.04025227 1.93849233 19 0 C22.875 -0.5 22.875 -0.5 26 0 C25.38552425 3.70392325 23.71363579 5.8902206 21.5 8.875 C17.21450503 15.35144332 16.92218892 21.38562996 17 29 C14.69 29 12.38 29 10 29 C10.03222656 28.22398437 10.06445312 27.44796875 10.09765625 26.6484375 C9.99808426 17.37717871 7.16659215 12.0881383 1.93359375 4.80078125 C0 2 0 2 0 0 Z " fill="currentColor" transform="translate(864,875)"/>
</svg>
