<?xml version="1.0" standalone="no"?>
<!DOCTYPE svg PUBLIC "-//W3C//DTD SVG 20010904//EN"
 "http://www.w3.org/TR/2001/REC-SVG-20010904/DTD/svg10.dtd">
<svg version="1.0" xmlns="http://www.w3.org/2000/svg"
 width="943.000000pt" height="943.000000pt" viewBox="0 0 943.000000 943.000000"
 preserveAspectRatio="xMidYMid meet">

<g transform="translate(0.000000,943.000000) scale(0.100000,-0.100000)"
fill="#000000" stroke="none">
<path d="M0 4715 l0 -4715 4715 0 4715 0 0 4715 0 4715 -4715 0 -4715 0 0
-4715z m3470 2652 l0 -303 109 -12 c193 -22 435 -94 616 -184 99 -50 215 -118
215 -127 0 -3 -44 -51 -99 -105 l-99 -98 -143 70 c-242 119 -423 162 -701 170
l-188 4 0 305 0 305 -67 -6 c-355 -36 -696 -150 -994 -331 l-87 -53 -101 102
-102 103 83 55 c267 178 614 315 953 377 148 27 150 28 393 29 l212 2 0 -303z
m504 228 c182 -47 288 -86 456 -166 278 -134 494 -285 705 -491 l130 -127
-534 -534 -533 -535 -99 101 -99 101 431 432 431 431 -57 49 c-246 212 -589
388 -915 467 -69 16 -131 32 -137 33 -10 3 -13 40 -13 145 l0 142 52 -7 c28
-4 110 -22 182 -41z m3086 -65 c413 -37 761 -194 1048 -474 303 -295 463 -677
463 -1103 0 -232 -40 -411 -135 -608 -66 -139 -104 -199 -545 -873 -198 -304
-361 -555 -361 -557 0 -2 228 -6 508 -7 562 -3 544 -1 594 -70 17 -25 23 -46
23 -90 0 -62 -17 -94 -69 -132 -27 -21 -36 -21 -724 -21 l-697 0 -36 23 c-49
30 -73 81 -67 142 4 41 58 129 497 805 272 417 515 797 541 843 57 98 112 232
131 317 18 78 18 378 0 460 -91 429 -378 763 -798 929 -180 71 -325 96 -563
96 -251 -1 -434 -35 -669 -127 -126 -49 -169 -55 -223 -29 -57 27 -83 71 -83
142 0 51 4 66 29 98 40 53 67 67 239 124 314 104 592 139 897 112z m-5232
-712 c114 -115 211 -208 214 -208 3 0 59 38 125 85 194 140 530 293 701 321
l42 7 0 -144 0 -144 -92 -28 c-116 -35 -348 -148 -450 -219 -93 -64 -248 -198
-283 -244 -14 -19 -31 -34 -38 -34 -6 0 -107 95 -224 212 l-212 212 -21 -25
c-261 -304 -434 -644 -514 -1009 l-21 -95 -143 -3 c-168 -3 -156 -20 -113 168
88 381 259 732 504 1040 68 85 298 321 309 318 4 -2 101 -96 216 -210z m5287
-207 c103 -25 145 -43 227 -98 81 -53 165 -143 207 -222 35 -66 71 -203 71
-272 0 -123 -51 -297 -133 -452 -29 -56 -412 -651 -851 -1322 -439 -671 -800
-1226 -803 -1232 -4 -10 283 -13 1380 -15 l1386 -3 28 -21 c89 -67 89 -202 1
-266 l-33 -23 -1543 -3 c-1033 -1 -1557 1 -1582 8 -45 12 -95 64 -109 114 -9
34 -2 89 15 117 4 8 399 613 878 1344 478 732 891 1366 918 1410 112 186 142
343 86 451 -76 147 -229 202 -483 175 -132 -15 -212 -40 -397 -128 -125 -59
-144 -65 -187 -61 -94 9 -146 76 -139 177 6 85 23 102 183 181 248 122 393
158 640 159 125 1 177 -3 240 -18z m-3600 -166 c125 -19 224 -46 334 -91 133
-55 132 -48 14 -166 l-102 -102 -103 32 c-390 121 -789 31 -1077 -243 -210
-200 -322 -442 -337 -735 -29 -540 364 -1028 899 -1115 180 -29 337 -18 515
37 l103 32 99 -99 c55 -55 100 -103 100 -108 0 -5 -30 -22 -67 -39 -440 -200
-962 -153 -1353 123 -101 71 -254 221 -323 317 -107 149 -180 310 -228 502
-21 85 -24 118 -24 305 0 188 3 220 24 305 88 354 290 639 590 837 270 179
618 256 936 208z m-1732 -363 l98 -98 -52 -98 c-265 -504 -264 -1095 2 -1595
l50 -94 -98 -99 c-54 -54 -101 -98 -105 -98 -13 0 -118 184 -162 286 -83 188
-143 409 -161 596 l-7 68 -307 2 -306 3 0 135 0 135 305 3 305 2 17 124 c31
221 100 442 199 638 39 77 108 188 118 188 3 0 50 -44 104 -98z m-722 -1437
c4 -16 14 -64 24 -105 76 -328 276 -717 489 -950 l38 -43 218 218 218 217 23
-32 c40 -54 197 -187 314 -265 131 -88 280 -160 423 -205 l102 -33 0 -143 c0
-99 -3 -144 -11 -144 -18 0 -129 29 -214 57 -170 54 -444 205 -595 326 l-45
37 -218 -218 -218 -217 -137 140 c-340 348 -564 755 -673 1225 -43 188 -55
171 113 168 l142 -3 7 -30z m3714 -781 c83 -82 227 -227 320 -321 l170 -173
-85 -86 c-359 -364 -835 -625 -1319 -725 -51 -10 -100 -19 -107 -19 -12 0 -14
25 -12 141 l3 141 135 34 c153 37 250 72 408 143 170 77 403 224 525 331 l49
43 -432 432 -431 431 98 101 98 100 215 -212 c118 -117 283 -280 365 -361z
m-460 -324 c81 -82 97 -102 85 -111 -157 -105 -379 -202 -580 -254 -96 -25
-271 -55 -322 -55 l-28 0 0 -306 0 -306 -237 5 c-155 3 -269 10 -328 21 -143
26 -329 74 -449 117 -181 65 -459 206 -587 299 l-37 26 101 102 100 102 61
-38 c297 -187 653 -308 1024 -347 l62 -7 0 305 0 304 188 6 c279 9 484 59 712
176 63 32 120 59 125 60 6 0 55 -44 110 -99z m853 -1894 c61 -151 113 -280
114 -287 2 -11 -12 -14 -57 -14 -55 0 -61 2 -73 28 -13 26 -15 27 -103 27
l-90 0 -11 -30 c-10 -30 -11 -31 -72 -28 -33 2 -60 7 -59 13 4 26 227 565 233
565 4 0 57 -123 118 -274z m1007 109 l130 -153 5 147 5 146 58 3 57 3 0 -286
c0 -243 -2 -285 -15 -285 -8 0 -74 67 -147 149 -73 82 -136 150 -140 150 -5 1
-8 -64 -8 -144 l0 -145 -55 0 -55 0 0 285 c0 265 1 285 18 284 9 0 74 -67 147
-154z m-3575 85 l0 -60 -80 0 -80 0 0 -50 0 -50 70 0 70 0 0 -60 0 -60 -70 0
-70 0 0 -50 0 -50 85 0 85 0 0 -60 0 -61 -142 3 -143 3 -3 265 c-1 146 0 270
3 277 3 10 40 13 140 13 l135 0 0 -60z m461 -17 l42 -76 39 76 38 77 65 0 c36
0 65 -3 65 -6 0 -4 -31 -62 -70 -128 -38 -67 -70 -125 -70 -128 0 -4 38 -70
85 -148 59 -99 80 -143 71 -146 -7 -3 -38 -4 -67 -2 l-54 3 -47 85 c-26 47
-51 86 -55 87 -5 2 -19 -18 -33 -43 -13 -26 -37 -66 -52 -90 -27 -44 -28 -44
-86 -44 -32 0 -61 3 -64 6 -4 3 32 70 79 150 l85 144 -66 112 c-92 159 -91
148 -13 148 l66 0 42 -77z m835 57 c49 -24 69 -51 86 -114 15 -57 -1 -114 -45
-163 -35 -37 -81 -52 -169 -53 l-47 0 -3 -102 -3 -103 -52 -3 -53 -3 0 280 0
281 122 0 c102 0 128 -3 164 -20z m494 -200 l0 -219 88 -3 87 -3 0 -55 0 -55
-142 -3 -143 -3 0 281 0 280 55 0 55 0 0 -220z m1290 -60 l0 -280 -55 0 -55 0
0 280 0 280 55 0 55 0 0 -280z m1320 269 c32 -12 32 -12 27 -62 -4 -27 -8 -51
-10 -54 -2 -2 -16 1 -31 7 -15 5 -45 10 -66 10 -32 0 -43 -5 -57 -26 -23 -35
-11 -52 63 -89 111 -55 144 -94 144 -167 0 -95 -61 -159 -160 -166 -58 -4
-163 19 -175 38 -4 6 -3 35 0 64 l7 54 42 -19 c56 -25 137 -25 160 0 30 33 12
58 -67 94 -43 20 -85 48 -104 71 -28 31 -33 44 -33 90 0 61 25 107 79 143 38
26 124 31 181 12z m-4422 -737 c3 -20 0 -22 -21 -17 -28 7 -67 -23 -67 -50 0
-26 39 -57 65 -51 17 4 24 1 28 -14 13 -51 -103 -26 -123 26 -17 44 -11 74 20
105 38 38 93 39 98 1z m182 -7 c0 -31 3 -35 25 -35 22 0 25 4 25 35 0 28 4 35
20 35 19 0 20 -7 20 -95 0 -88 -1 -95 -20 -95 -16 0 -20 7 -20 35 0 31 -3 35
-25 35 -22 0 -25 -4 -25 -35 0 -28 -4 -35 -20 -35 -19 0 -20 7 -20 95 0 88 1
95 20 95 16 0 20 -7 20 -35z m342 -56 c31 -75 35 -91 22 -96 -8 -3 -20 -1 -27
6 -6 6 -23 11 -37 11 -14 0 -31 -5 -37 -11 -7 -7 -18 -9 -27 -6 -12 5 -9 21
21 96 20 50 39 91 42 91 3 0 23 -41 43 -91z m225 44 l42 -48 1 48 c0 40 3 47
20 47 19 0 20 -7 20 -95 0 -52 -3 -95 -6 -95 -3 0 -25 21 -49 48 l-44 47 -1
-47 c0 -41 -3 -48 -20 -48 -19 0 -20 7 -20 95 0 52 3 95 7 95 4 0 26 -21 50
-47z m333 32 c84 -43 39 -175 -60 -175 l-40 0 0 95 0 95 35 0 c20 0 49 -7 65
-15z m291 -76 c30 -74 34 -91 22 -96 -8 -3 -19 -1 -26 6 -14 14 -64 15 -72 1
-6 -10 -45 -14 -45 -5 0 13 73 185 79 185 3 0 22 -41 42 -91z m228 38 l41 -48
0 50 c0 44 3 51 20 51 19 0 20 -7 20 -95 0 -52 -4 -95 -9 -95 -5 0 -26 21 -47
47 l-39 48 -5 -45 c-4 -32 -10 -46 -22 -48 -16 -3 -18 7 -18 93 0 53 4 95 9
93 4 -1 27 -25 50 -51z m526 28 c0 -15 -6 -19 -23 -17 -28 4 -62 -23 -62 -50
0 -30 38 -61 67 -53 21 5 24 3 21 -17 -3 -20 -8 -23 -42 -22 -82 3 -115 96
-56 155 23 24 37 30 62 27 25 -2 33 -8 33 -23z m185 -10 c0 -31 3 -35 25 -35
22 0 25 4 25 35 0 28 4 35 20 35 19 0 20 -7 20 -95 0 -88 -1 -95 -20 -95 -16
0 -20 7 -20 35 0 31 -3 35 -25 35 -22 0 -25 -4 -25 -35 0 -28 -4 -35 -20 -35
-19 0 -20 7 -20 95 0 88 1 95 20 95 16 0 20 -7 20 -35z m341 -56 c30 -74 34
-91 22 -96 -8 -3 -19 -1 -26 6 -14 14 -64 15 -72 1 -6 -10 -45 -14 -45 -5 0
13 73 185 79 185 3 0 22 -41 42 -91z m211 19 c3 -65 5 -73 23 -73 18 0 21 8
25 70 4 56 8 70 23 73 15 3 17 -6 17 -72 0 -85 -18 -116 -65 -116 -47 0 -65
31 -65 115 0 68 2 75 20 75 17 0 19 -8 22 -72z m338 57 c17 -9 33 -28 39 -48
23 -69 -24 -127 -104 -127 l-35 0 0 95 0 95 35 0 c20 0 49 -7 65 -15z m228
-23 c3 -26 7 -32 28 -32 21 0 24 5 24 36 0 28 3 35 18 32 15 -3 17 -15 17 -93
0 -78 -2 -90 -17 -93 -15 -3 -18 4 -18 32 0 31 -3 36 -24 36 -21 0 -25 -6 -28
-32 -2 -22 -9 -34 -20 -36 -16 -3 -18 7 -18 93 0 86 2 96 18 93 11 -2 18 -14
20 -36z m341 -57 c37 -94 37 -95 11 -95 -11 0 -20 5 -20 10 0 6 -16 10 -35 10
-19 0 -35 -4 -35 -10 0 -5 -9 -10 -20 -10 -26 0 -25 8 6 83 15 34 31 73 36 86
11 31 18 22 57 -74z m273 78 c22 -20 24 -66 3 -83 -14 -11 -13 -16 4 -46 11
-18 17 -35 14 -38 -15 -15 -35 -3 -56 32 l-22 37 -5 -35 c-3 -23 -11 -36 -22
-38 -16 -3 -18 6 -18 92 l0 96 42 0 c24 0 49 -7 60 -17z m204 -15 l16 -31 20
31 c11 18 29 32 39 32 25 0 24 -6 -11 -65 -19 -32 -30 -64 -30 -88 0 -31 -3
-38 -17 -35 -14 2 -19 16 -23 53 -3 29 -15 63 -28 82 -27 38 -28 53 -2 53 12
0 26 -12 36 -32z"/>
<path d="M5027 1581 c-24 -67 -23 -71 23 -71 23 0 40 5 40 11 0 17 -34 109
-40 109 -3 0 -13 -22 -23 -49z"/>
<path d="M3720 1725 l0 -55 65 0 c53 0 66 3 75 19 30 58 1 91 -81 91 l-59 0 0
-55z"/>
<path d="M3050 1065 c0 -8 5 -15 10 -15 6 0 10 7 10 15 0 8 -4 15 -10 15 -5 0
-10 -7 -10 -15z"/>
<path d="M3600 1086 c0 -42 4 -56 14 -56 22 0 46 28 46 53 0 29 -10 43 -37 51
-22 7 -23 5 -23 -48z"/>
<path d="M3900 1066 c0 -9 5 -16 10 -16 6 0 10 4 10 9 0 6 -4 13 -10 16 -5 3
-10 -1 -10 -9z"/>
<path d="M5180 1066 c0 -9 5 -16 10 -16 6 0 10 4 10 9 0 6 -4 13 -10 16 -5 3
-10 -1 -10 -9z"/>
<path d="M5720 1085 c0 -41 4 -55 14 -55 24 0 46 30 46 61 0 22 -6 32 -26 39
-14 6 -27 10 -30 10 -2 0 -4 -25 -4 -55z"/>
<path d="M6296 1065 c-3 -9 0 -15 9 -15 9 0 12 6 9 15 -4 8 -7 15 -9 15 -2 0
-5 -7 -9 -15z"/>
<path d="M6560 1120 c0 -15 5 -20 18 -18 9 2 17 10 17 18 0 8 -8 16 -17 18
-13 2 -18 -3 -18 -18z"/>
</g>
</svg>
